<?xml version="1.0" standalone="no"?>
<!DOCTYPE svg PUBLIC "-//W3C//DTD SVG 20010904//EN"
 "http://www.w3.org/TR/2001/REC-SVG-20010904/DTD/svg10.dtd">
<svg version="1.0" xmlns="http://www.w3.org/2000/svg"
 width="64.000000pt" height="64.000000pt" viewBox="0 0 64.000000 64.000000"
 preserveAspectRatio="xMidYMid meet">

<g transform="translate(0.000000,64.000000) scale(0.100000,-0.100000)"
fill="#000000" stroke="none">
<path d="M325 573 c-16 -3 -39 -13 -50 -23 -11 -10 -37 -22 -58 -25 -31 -6
-41 -15 -58 -47 -11 -21 -26 -41 -34 -44 -8 -3 -17 -14 -20 -23 -3 -10 -17
-23 -30 -29 -20 -9 -25 -19 -25 -50 0 -26 -7 -43 -21 -55 -26 -23 -21 -50 25
-127 31 -52 35 -55 70 -53 25 2 43 -4 57 -18 11 -11 28 -18 37 -15 9 3 45 6
80 7 52 2 68 -1 94 -21 l31 -23 44 23 c87 46 183 196 155 241 -7 10 -12 27
-12 36 0 10 -14 26 -30 35 -22 13 -30 24 -30 46 0 35 -34 108 -55 115 -8 4
-15 13 -15 22 0 27 -69 40 -155 28z m62 -9 c-3 -3 -12 -4 -19 -1 -8 3 -5 6 6
6 11 1 17 -2 13 -5z m59 -16 c-22 -12 -57 -1 -37 11 7 5 22 6 33 3 18 -4 19
-6 4 -14z m-55 -14 c12 -11 27 -14 47 -9 18 4 38 1 50 -6 19 -12 19 -13 1 -33
-11 -11 -19 -29 -19 -40 0 -29 -39 -71 -72 -80 -15 -3 -32 -15 -38 -26 -6 -11
-19 -20 -30 -20 -10 0 -22 -4 -25 -10 -3 -5 -18 -10 -33 -11 -15 0 -36 -4 -47
-9 -13 -6 -2 -7 30 -3 28 3 52 10 53 15 2 4 12 8 23 8 10 0 29 11 41 25 12 14
29 25 38 25 22 0 70 51 70 76 1 19 27 62 33 53 13 -17 27 -65 27 -89 0 -21 8
-33 30 -47 19 -11 30 -25 30 -39 0 -12 5 -24 11 -26 5 -2 7 -11 3 -21 -5 -13
-10 -15 -20 -7 -7 7 -25 10 -41 8 -23 -2 -30 -10 -37 -39 -8 -33 -13 -38 -49
-43 -35 -6 -44 -3 -61 17 -12 13 -29 26 -38 30 -11 4 -19 18 -19 34 -2 25 -2
25 -6 5 -4 -18 6 -33 38 -63 39 -36 47 -39 81 -34 34 6 39 4 47 -18 6 -14 15
-28 21 -32 5 -3 8 -11 4 -16 -3 -6 -16 1 -29 16 -18 19 -34 25 -64 25 -34 0
-43 -5 -58 -30 -11 -20 -27 -31 -48 -34 -59 -10 -135 -13 -135 -7 0 10 63 31
92 31 15 0 29 7 33 18 5 14 4 15 -6 5 -7 -7 -24 -13 -39 -14 -14 0 -40 -6 -59
-13 -43 -15 -84 -1 -75 27 3 9 1 32 -5 50 -11 32 -34 48 -96 62 l-30 7 22 15
c13 9 23 24 23 34 0 15 7 19 33 19 77 0 112 42 83 100 -10 22 -12 38 -6 55 9
25 30 43 30 26 0 -5 11 -22 23 -38 35 -41 40 -73 17 -111 -11 -18 -15 -32 -10
-32 5 0 17 14 25 31 20 37 13 74 -20 119 -25 34 -25 50 2 50 8 0 27 9 41 21
31 24 82 21 113 -7z m-234 -134 c-3 -11 -1 -20 4 -20 5 0 9 -7 9 -16 0 -11 -6
-15 -20 -11 -11 3 -20 2 -20 -1 0 -4 -16 -7 -35 -7 -38 0 -46 10 -16 20 11 3
26 17 35 30 20 31 51 34 43 5z m424 -167 c7 -7 5 -21 -8 -47 l-17 -37 -18 23
c-16 20 -17 20 -12 3 4 -11 14 -26 22 -33 9 -7 11 -12 4 -12 -6 0 -18 10 -27
23 -21 32 -3 98 26 94 10 -2 24 -8 30 -14z m-495 -18 c4 -8 12 -15 19 -15 23
0 36 -72 16 -84 -10 -7 -81 84 -81 103 0 17 40 13 46 -4z m345 -97 c0 -10 2
-10 6 0 7 17 23 15 23 -4 0 -8 4 -13 9 -10 5 3 14 -1 20 -8 10 -11 7 -18 -11
-30 -29 -20 -43 -20 -67 0 -16 14 -17 21 -9 40 12 26 28 32 29 12z"/>
<path d="M325 490 c-26 -28 -19 -73 14 -93 39 -23 49 -22 63 8 6 14 18 25 27
26 9 0 11 3 4 5 -6 3 -23 -2 -37 -11 -20 -14 -28 -14 -45 -3 -24 15 -25 21
-11 49 13 24 49 25 66 2 7 -10 16 -15 20 -11 4 5 -1 17 -10 27 -22 24 -70 24
-91 1z"/>
<path d="M428 314 c-16 -8 -28 -19 -28 -25 0 -17 30 -69 40 -69 13 0 13 27 0
35 -13 8 -13 35 1 35 11 0 39 24 39 34 0 10 -24 6 -52 -10z"/>
<path d="M493 309 c3 -9 -1 -29 -9 -44 -18 -34 -18 -41 0 -26 20 17 29 62 15
75 -9 8 -11 7 -6 -5z"/>
<path d="M85 290 c-15 -6 -10 -9 25 -11 l45 -4 3 -42 c2 -24 6 -43 10 -43 9 0
3 82 -7 91 -12 12 -56 17 -76 9z"/>
<path d="M255 260 c-3 -5 -15 -10 -26 -10 -15 0 -19 -7 -19 -38 0 -51 32 -68
91 -51 31 10 39 17 39 36 0 30 -8 29 -20 -1 -14 -37 -90 -42 -90 -6 0 25 27
50 62 57 21 4 26 8 16 14 -18 12 -46 11 -53 -1z"/>
</g>
</svg>
